<?xml version="1.0" encoding="utf-8"?>
<!-- Generator: Adobe Illustrator 22.0.1, SVG Export Plug-In . SVG Version: 6.00 Build 0)  -->
<svg version="1.1" id="Ebene_1" xmlns="http://www.w3.org/2000/svg" xmlns:xlink="http://www.w3.org/1999/xlink" x="0px" y="0px"
	 viewBox="0 0 1417.3 510.2" style="enable-background:new 0 0 1417.3 510.2;" xml:space="preserve">
<style type="text/css">
	.st0{fill:#2B2928;}
	.st1{fill:#FFFFFF;}
	.st2{clip-path:url(#SVGID_2_);fill:#F39200;}
	.st3{clip-path:url(#SVGID_4_);fill:#2B2928;}
</style>
<rect x="7.2" y="245" transform="matrix(0.9997 -2.618236e-02 2.618236e-02 0.9997 -9.0647 18.6763)" class="st0" width="1402.8" height="220.9"/>
<rect x="42.6" y="252.6" transform="matrix(0.9997 -2.618615e-02 2.618615e-02 0.9997 -8.7771 19.0376)" class="st1" width="1359.7" height="184.1"/>
<g>
	<defs>
		<rect id="SVGID_1_" x="4.6" y="36.5" width="1408.1" height="447.7"/>
	</defs>
	<clipPath id="SVGID_2_">
		<use xlink:href="#SVGID_1_"  style="overflow:visible;"/>
	</clipPath>
	<path class="st2" d="M1303.7,385.8l16.6-0.4c1.6,0,2.6-1.1,2.6-2.7l-1-36.6c0-1.6,0.9-2.7,2.6-2.7l28.6-0.7c1.6,0,2.7,0.9,2.7,2.6
		l1,36.6c0,1.6,1.1,2.6,2.7,2.6l16.6-0.4c1.6,0,2.6-1.1,2.6-2.7l-2.5-96.2c0-1.6-1.1-2.6-2.7-2.6l-16.6,0.4c-1.6,0-2.6,1.1-2.6,2.7
		l0.9,34.3c0,1.6-0.9,2.7-2.6,2.7l-28.6,0.7c-1.6,0-2.7-0.9-2.7-2.6l-0.9-34.3c0-1.6-1.1-2.6-2.7-2.6l-16.6,0.4
		c-1.6,0-2.6,1.1-2.6,2.7l2.5,96.2C1301,384.8,1302.1,385.8,1303.7,385.8 M1237.2,389.1l11.2-0.3c15.8-0.4,27.3-7.8,30.5-20.7
		c0.4-1.7,0.4-2.7,0.4-3.1c0-0.7-0.4-1.3-1.4-1.6l-14.4-4.8c-0.4-0.1-0.8-0.2-1.2-0.2c-0.9,0-2,0.7-2.4,1.9c-1.7,5.7-5.4,8.4-12,8.6
		l-11.3,0.3c-6.2,0.2-10.3-4.2-10.5-10.4l-1.1-42.6c-0.2-5.8,3.6-10.8,9.9-10.9l11.3-0.3c6.6-0.2,10.7,2.5,12.4,7.9
		c0.4,1.2,1.5,1.8,2.5,1.7c0.4,0,0.8-0.1,1.2-0.3l14.1-5.5c0.9-0.3,1.3-1,1.3-1.7c0-0.5,0-0.7-0.5-2.3
		c-3.9-12.7-15.8-20.2-31.5-19.8l-11.3,0.3c-21.3,0.6-31.9,12.1-31.4,29.2l1.2,47.3C1204.8,379.3,1215.1,389.7,1237.2,389.1
		 M1150.1,371.4l-11.2,0.3c-6.2,0.2-10.3-4.2-10.5-10.4l-1.1-42.6c-0.2-5.8,3.6-10.8,9.9-10.9l11.2-0.3c6.2-0.2,10.3,4.2,10.5,10.4
		l1.1,42.6C1160.1,366.3,1156.4,371.2,1150.1,371.4 M1150.6,391.4c21.3-0.6,31.9-12.1,31.4-29.2l-1.2-47.3
		c-0.5-17.7-10.8-28-32.9-27.5l-11.2,0.3c-21.3,0.6-31.9,12.2-31.4,29.2l1.2,47.3c0.5,17.7,10.8,28,32.9,27.5L1150.6,391.4z
		 M996.7,393.8l16.2-0.4c1.4,0,2.3-0.8,2.5-1.9l12.1-50.1c1.1-4.5,1.9-10.2,2.2-18.5l0.6,0c0.3,10.4,2,23.7,4.4,31.4l11.1,36.6
		c0.3,0.9,1.2,1.6,2.6,1.6l17.1-0.5c1.4,0,2.3-0.7,2.5-1.9l18.3-97.6c0.1-0.3,0.3-1.3,0.3-1.5c0-0.8-0.7-1.2-1.8-1.1l-18.7,0.5
		c-0.8,0-1.4,0.4-1.5,1.2l-6.2,33.5c-1.9,10.6-2.9,23.6-2.7,31.5l-0.6,0c-0.7-7.7-1.8-13.7-3.1-18.4l-13.6-46
		c-0.3-0.8-0.8-1.2-1.9-1.1l-16.2,0.4c-1.4,0-1.8,0.7-2,1.5l-8.1,33.3c-2.3,9.6-3.8,22.8-3.9,31.6l-0.6,0
		c-0.4-4.6-1.6-11.3-3.1-18.4l-10.1-46.1c-0.2-0.8-0.7-1.2-1.7-1.1l-18.7,0.5c-1.2,0-1.8,0.4-1.8,1.2c0,0.4,1,3.8,1.2,4.8l22.7,93.4
		C994.4,393.2,995.4,393.9,996.7,393.8 M912.6,396l16.6-0.4c1.6,0,2.6-1.1,2.6-2.7l-2-75.4c0-1.6,1-2.7,2.6-2.7l17.6-0.5
		c1.6,0,2.6-1.1,2.6-2.7l-0.4-14.7c0-1.6-1.1-2.6-2.7-2.6l-62.4,1.6c-1.6,0-2.6,1.1-2.6,2.7l0.4,14.7c0,1.6,1.1,2.6,2.7,2.6
		l17.6-0.5c1.6,0,2.7,1,2.7,2.6l2,75.4C909.9,395.1,910.9,396.1,912.6,396 M826.3,398.3l16.6-0.4c1.6,0,2.6-1.1,2.6-2.7l-2-75.4
		c0-1.6,0.9-2.7,2.6-2.7l17.6-0.5c1.6,0,2.6-1.1,2.6-2.7l-0.4-14.7c0-1.6-1.1-2.6-2.7-2.6l-62.4,1.6c-1.6,0-2.6,1.1-2.6,2.7
		l0.4,14.7c0,1.6,1.1,2.6,2.7,2.6l17.6-0.5c1.6,0,2.7,1,2.7,2.6l2,75.4C823.6,397.3,824.6,398.3,826.3,398.3 M760.2,400l16.6-0.4
		c1.6,0,2.6-1.1,2.6-2.7l-2.5-96.2c0-1.6-1.1-2.6-2.7-2.6l-16.6,0.4c-1.6,0-2.6,1.1-2.6,2.7l2.5,96.2
		C757.5,399.1,758.6,400.1,760.2,400 M641.8,403.1l16.5-0.4c1.6,0,2.6-1.1,2.6-2.7l-0.7-26.9c-0.4-14.8-3-31.3-3-32.2l0.4,0
		c0.2,0.4,4,12.2,6.4,17.8l12.8,29.1c0.4,1,1.4,1.5,2.8,1.4l12.4-0.3c1.1,0,2-0.5,2.4-1.5L706,358c2.1-5.7,5.1-17.4,5.1-17.8l0.6,0
		c0,0.9-1.6,17.4-1.2,31.7l0.7,26.7c0,1.6,1.1,2.6,2.7,2.6l16.2-0.4c1.6,0,2.6-1.1,2.6-2.7l-2.5-96.2c0-1.6-1.1-2.6-2.7-2.6
		l-17.7,0.5c-1.2,0-2.1,0.6-2.4,1.5l-20.2,51.1c-0.9,2.7-1.7,6.1-1.7,6.2l-0.8,0c0-0.2-0.8-3.3-2-6.1l-23.4-49.9
		c-0.4-0.8-1.3-1.4-2.5-1.3l-17.8,0.5c-1.6,0-2.6,1.1-2.6,2.7l2.5,96.2C639.1,402.2,640.1,403.2,641.8,403.1 M543.8,405.7l16.6-0.4
		c1.6,0,2.6-1.1,2.6-2.7l-0.9-33.9c0-1.6,0.9-2.7,2.6-2.7l13.6-0.4c0.7,0,1.3,0.3,1.7,1.1l16.3,36.5c0.4,0.9,1,1.2,1.6,1.2l19-0.5
		c1.3,0,1.9-0.7,1.8-1.3c0-0.6-0.4-1.6-1.1-3.3l-16.4-37c-0.3-0.6-0.4-1.1-0.4-1.7c0-0.6,0.4-1.1,1.1-1.6c8.9-5.7,12.9-14,12.6-24.9
		c-0.5-19-12.8-30.7-32.9-30.1l-40.5,1.1c-1.6,0-2.6,1.1-2.6,2.7l2.5,95.4C541.1,404.7,542.1,405.7,543.8,405.7 M582.9,346.1
		l-18.7,0.5c-1.6,0-2.7-0.9-2.7-2.6l-0.4-16.9c0-1.6,0.9-2.7,2.6-2.7l18.7-0.5c6.2-0.2,11.1,3.9,11.2,9.4l0.1,2.7
		C593.8,341.6,589,345.9,582.9,346.1 M516.1,406.4c1.6,0,2.6-1.1,2.6-2.7l-0.4-14.7c0-1.6-1.1-2.6-2.7-2.6l-39.4,1
		c-1.6,0-2.7-0.9-2.7-2.6l-0.4-15.4c0-1.6,0.9-2.7,2.6-2.7l32.3-0.8c1.6,0,2.6-1.1,2.6-2.7l-0.4-14.7c0-1.6-1.1-2.6-2.7-2.6
		l-32.3,0.8c-1.6,0-2.7-1-2.7-2.6l-0.4-14.7c0-1.6,0.9-2.7,2.6-2.7l39.4-1c1.6,0,2.6-1.1,2.6-2.7l-0.4-14.7c0-1.6-1.1-2.6-2.7-2.6
		l-61.3,1.6c-1.6,0-2.6,1.1-2.6,2.7l2.5,95.4c0,1.6,1.1,2.6,2.7,2.6L516.1,406.4z M352.3,410.7l16.6-0.4c1.6,0,2.6-1.1,2.6-2.7
		l-1-36.6c0-1.6,0.9-2.7,2.6-2.7l28.6-0.8c1.6,0,2.7,1,2.7,2.6l1,36.6c0,1.6,1.1,2.6,2.7,2.6l16.6-0.4c1.6,0,2.6-1.1,2.6-2.7
		l-2.5-96.2c0-1.6-1.1-2.6-2.7-2.6l-16.6,0.4c-1.6,0-2.6,1.1-2.6,2.7l0.9,34.3c0,1.6-0.9,2.7-2.6,2.7l-28.6,0.8
		c-1.6,0-2.7-0.9-2.7-2.6l-0.9-34.3c0-1.6-1.1-2.6-2.7-2.6l-16.6,0.4c-1.6,0-2.6,1.1-2.6,2.7l2.5,96.2
		C349.6,409.7,350.7,410.7,352.3,410.7 M285.8,414l11.2-0.3c15.8-0.4,27.3-7.8,30.5-20.7c0.4-1.7,0.4-2.7,0.4-3.1
		c0-0.7-0.4-1.3-1.4-1.6l-14.4-4.8c-0.4-0.1-0.8-0.2-1.2-0.2c-0.9,0-2,0.7-2.4,1.9c-1.7,5.7-5.4,8.4-12,8.6l-11.3,0.3
		c-6.2,0.2-10.3-4.2-10.5-10.4l-1.1-42.6c-0.2-5.8,3.6-10.8,9.9-10.9l11.3-0.3c6.6-0.2,10.7,2.5,12.5,7.9c0.4,1.2,1.5,1.8,2.5,1.7
		c0.4,0,0.8-0.1,1.2-0.3l14.1-5.5c0.9-0.3,1.3-1,1.3-1.7c0-0.5,0-0.7-0.5-2.3c-3.9-12.7-15.8-20.2-31.5-19.8l-11.3,0.3
		c-21.3,0.6-31.9,12.1-31.4,29.2l1.2,47.3C253.4,404.3,263.7,414.6,285.8,414 M198.1,416.3c22.4-0.6,35.2-13,34.7-31.8
		c-0.4-13.7-10.2-24-31.3-30.5c-13-4.1-17.1-7.2-17.3-12.3c-0.1-5.2,4.1-9.4,11.7-9.6c6.8-0.2,12,2.8,14.5,7.9
		c0.6,1.2,1.5,1.8,2.5,1.7c0.4,0,0.8-0.1,1.2-0.3l14.1-5.6c0.9-0.3,1.3-1,1.3-1.7c0-0.5,0-0.7-0.5-2.3
		c-4.9-12.7-17.3-19.9-33.9-19.4c-21.2,0.6-34.3,14.6-33.9,28.8c0.4,15.4,9.8,25.6,31.4,31.8c13.3,3.8,17,7.9,17.1,12.9
		c0.1,5.6-4,9.8-12.1,10c-8.8,0.2-13.9-3-16.5-8.4c-0.6-1.2-1.5-1.8-2.5-1.7c-0.4,0-0.8,0.1-1.2,0.3l-14.9,6.1
		c-0.9,0.3-1.3,1-1.3,1.7c0,0.5,0,0.7,0.5,2.3C166.2,409.2,180,416.8,198.1,416.3 M119.4,400.8c1.2,0,1.6,0.1,1.8,0.9l4.1,13.8
		c0.3,0.8,0.8,1.2,1.7,1.1l19.4-0.5c1.2,0,1.7-0.4,1.7-1.2c0-0.2,0-0.4-0.2-0.9l-31.3-97.1c-0.3-1.1-1.4-1.6-2.6-1.6l-23.8,0.6
		c-1.2,0-2.2,0.6-2.5,1.7c0,0-26.1,97.8-26.2,98c-0.1,0.4-0.3,1.1-0.3,1.5c0,0.8,0.7,1.2,1.8,1.1l19.4-0.5c0.8,0,1.3-0.4,1.5-1.2
		l3.3-14c0.2-0.8,0.5-1,1.8-1L119.4,400.8z M94.5,381.4c-1.4,0-1.8-0.6-1.6-1.6l8.2-34.1l0.3-3.2l2.7-0.1l0.5,3.2l9.9,33.6
		c0.3,1-0.2,1.7-1.6,1.7L94.5,381.4z"/>
</g>
<rect x="323.9" y="-254.9" transform="matrix(4.344155e-03 -1 1 4.344155e-03 283.7786 577.7119)" class="st0" width="216.1" height="802.6"/>
<rect x="331.4" y="-245.8" transform="matrix(4.364397e-03 -1 1 4.364397e-03 284.5352 559.8913)" class="st1" width="184.1" height="765.6"/>
<g>
	<defs>
		<rect id="SVGID_3_" x="4.6" y="36.5" width="1408.1" height="447.7"/>
	</defs>
	<clipPath id="SVGID_4_">
		<use xlink:href="#SVGID_3_"  style="overflow:visible;"/>
	</clipPath>
	<path class="st3" d="M705.6,192.4l16.6,0.1c1.6,0,2.7-1,2.7-2.7l0.2-33.9c0-1.6,1-2.7,2.7-2.7l13.6,0.1c0.7,0,1.3,0.3,1.6,1.1
		l15.1,36.9c0.4,0.9,0.9,1.3,1.6,1.3l19,0.1c1.3,0,1.9-0.6,1.9-1.2c0-0.6-0.3-1.7-1-3.3l-15.2-37.5c-0.2-0.6-0.4-1.1-0.4-1.7
		c0-0.6,0.4-1.1,1.2-1.6c9-5.5,13.3-13.6,13.4-24.5c0.1-19-11.9-31-32-31.1l-40.5-0.2c-1.6,0-2.7,1-2.7,2.7l-0.4,95.5
		C703,191.3,704,192.4,705.6,192.4 M746.6,134l-18.7-0.1c-1.6,0-2.7-1-2.7-2.7l0.1-16.9c0-1.6,1-2.7,2.7-2.7l18.7,0.1
		c6.2,0,11,4.2,10.9,9.8l0,2.7C757.6,129.8,752.6,134.1,746.6,134 M678,192.3c1.7,0,2.7-1,2.7-2.7l0.1-14.7c0-1.6-1-2.7-2.7-2.7
		l-39.4-0.2c-1.6,0-2.7-1-2.7-2.7l0.1-15.5c0-1.6,1-2.7,2.7-2.7l32.3,0.1c1.6,0,2.7-1,2.7-2.7l0.1-14.7c0-1.6-1-2.7-2.7-2.7
		l-32.3-0.1c-1.6,0-2.7-1-2.7-2.7l0.1-14.7c0-1.7,1-2.7,2.7-2.7l39.4,0.2c1.6,0,2.7-1,2.7-2.7l0.1-14.7c0-1.6-1-2.7-2.7-2.7
		l-61.4-0.3c-1.6,0-2.7,1-2.7,2.7l-0.4,95.5c0,1.6,1,2.7,2.7,2.7L678,192.3z M548.7,193.3l11.2,0c21.3,0.1,32.2-11.2,32.3-28.2
		l0.1-26.5c0-1.7-1-2.7-2.7-2.7l-31.3-0.1c-1.6,0-2.7,1-2.7,2.7l-0.1,12.2c0,1.6,1,2.7,2.7,2.7l10.1,0c1.6,0,2.7,1,2.7,2.7l0,6.7
		c0,5.9-4,10.6-10.2,10.6l-12-0.1c-6.2,0-10.2-4.5-10.2-10.7l0.2-42.6c0-5.8,4-10.6,10.2-10.6l11.6,0.1c6.6,0,10.6,2.5,12.2,8
		c0.4,1.2,1.5,1.8,2.4,1.8c0,0,0.8-0.1,1.2-0.2l14.3-5.1c0.9-0.3,1.3-0.9,1.3-1.6c0-0.5,0-0.7-0.5-2.4
		c-3.5-12.8-15.2-20.4-30.9-20.5l-11.6-0.1c-21.3-0.1-32.2,11.2-32.3,28.2l-0.2,47.3C516.6,182.5,526.6,193.2,548.7,193.3
		 M474.1,191.4l16.6,0.1c1.6,0,2.7-1,2.7-2.7l0.4-96.3c0-1.6-1-2.7-2.7-2.7l-16.6-0.1c-1.7,0-2.7,1-2.7,2.7l-0.4,96.3
		C471.5,190.3,472.5,191.4,474.1,191.4 M408.1,191.1l16.6,0.1c1.6,0,2.7-1,2.7-2.7l0.3-75.5c0-1.6,1-2.7,2.7-2.7l17.6,0.1
		c1.6,0,2.7-1,2.7-2.7l0.1-14.7c0-1.6-1-2.7-2.7-2.7l-62.4-0.3c-1.6,0-2.7,1-2.7,2.7l-0.1,14.7c0,1.6,1,2.7,2.7,2.7l17.6,0.1
		c1.6,0,2.7,1,2.7,2.7l-0.3,75.5C405.5,190,406.5,191.1,408.1,191.1 M349.5,174.8c1.2,0,1.6,0.2,1.8,0.9l3.6,13.9
		c0.2,0.8,0.8,1.2,1.6,1.2l19.5,0.1c1.2,0,1.7-0.4,1.7-1.2c0-0.2,0-0.4-0.2-0.9l-28.4-98c-0.3-1.1-1.3-1.7-2.5-1.7L323,89.1
		c-1.2,0-2.2,0.5-2.5,1.6c0,0-29.1,96.9-29.1,97.2c-0.2,0.4-0.3,1.1-0.3,1.5c0,0.8,0.6,1.2,1.8,1.2l19.4,0.1c0.8,0,1.3-0.4,1.6-1.2
		l3.8-13.9c0.2-0.8,0.6-0.9,1.8-0.9L349.5,174.8z M325.2,154.7c-1.4,0-1.8-0.6-1.6-1.7l9.2-33.9l0.4-3.2l2.7,0l0.4,3.2l8.9,33.9
		c0.2,1-0.2,1.6-1.7,1.6L325.2,154.7z M200.2,190.2l16.6,0.1c1.6,0,2.7-1,2.7-2.7l0.2-33.9c0-1.6,1-2.7,2.7-2.7l13.6,0.1
		c0.7,0,1.3,0.3,1.6,1.1l15.1,36.9c0.4,0.9,0.9,1.3,1.6,1.3l19,0.1c1.3,0,1.9-0.6,1.9-1.3c0-0.6-0.3-1.6-1-3.3l-15.2-37.5
		c-0.2-0.6-0.4-1.1-0.4-1.7c0-0.6,0.4-1.1,1.2-1.6c9-5.5,13.3-13.6,13.4-24.5c0.1-19-11.9-31-32-31.1l-40.5-0.2
		c-1.6,0-2.7,1-2.7,2.7l-0.4,95.5C197.5,189.1,198.5,190.2,200.2,190.2 M241.1,131.8l-18.7-0.1c-1.6,0-2.7-1-2.7-2.7l0.1-16.9
		c0-1.6,1-2.7,2.7-2.7l18.8,0.1c6.2,0,11,4.2,10.9,9.8l0,2.7C252.1,127.6,247.2,131.8,241.1,131.8 M153.6,190l16.6,0.1
		c1.6,0,2.7-1,2.7-2.7l0.4-96.3c0-1.7-1-2.7-2.7-2.7L154,88.4c-1.7,0-2.7,1-2.7,2.7l-0.4,96.3C150.9,188.9,151.9,190,153.6,190
		 M83.5,132.9c-1.6,0-2.7-1-2.7-2.7l0.1-18.7c0-1.6,1-2.7,2.7-2.7l15.5,0.1c6.2,0,11,4.4,10.9,11l0,2.3c0,6.7-4.8,10.8-11,10.8
		L83.5,132.9z M77.9,189.6c1.6,0,2.7-1,2.7-2.7l0.1-31.5c0-1.7,1-2.7,2.7-2.7l15.1,0.1c21.6,0.1,32.3-14.8,32.4-30.7l0-2.4
		c0.1-18.9-10.5-30.8-32-30.9l-37.1-0.2c-1.6,0-2.7,1-2.7,2.7l-0.4,95.5c0,1.6,1,2.7,2.7,2.7L77.9,189.6z"/>
</g>
</svg>
