<?xml version="1.0" encoding="utf-8"?>
<!-- Generator: Adobe Illustrator 22.0.1, SVG Export Plug-In . SVG Version: 6.00 Build 0)  -->
<svg version="1.1" id="Ebene_1" xmlns="http://www.w3.org/2000/svg" xmlns:xlink="http://www.w3.org/1999/xlink" x="0px" y="0px"
	 viewBox="0 0 93.5 93.5" style="enable-background:new 0 0 93.5 93.5;" xml:space="preserve">
<style type="text/css">
	.st0{fill:#1C1C1C;}
</style>
<g>
	<path class="st0" d="M48.8,22.9c15.6,0.5,24.7,7.6,24.7,18c0,9.5-5.9,14.7-25.2,18.2C33.8,61.6,30,65,30,71c0,3.6,1.2,6.4,3.3,8.9
		c-3.2-2-5.8-6.2-5.8-11c0-2.9,0.9-5.7,2.8-8v-34c-0.5,0-1,0-1.5,0c-0.2,0-0.4,0-0.6,0c-0.3,0-0.3-0.3-0.1-0.4
		c0.7-0.3,1.4-0.6,2.2-0.8v-7.1c0-0.1,0.1-0.3,0.3-0.3h3.9c0.1,0,0.3,0.1,0.3,0.3v5.9C39.3,23.3,44.6,22.7,48.8,22.9 M34.7,57.4
		c0.5-0.3,1.1-0.6,1.7-0.8c7-3,10.5-8.3,10.5-14.9c0-6.5-4.8-12.1-12.2-14.1V57.4z"/>
	<path class="st0" d="M46.7,4.2C23.3,4.2,4.2,23.3,4.2,46.8c0,23.5,19,42.6,42.5,42.6c23.5,0,42.6-19.1,42.6-42.6
		C89.3,23.3,70.2,4.2,46.7,4.2 M46.7,8.3c21.3,0,38.5,17.2,38.5,38.5C85.2,68,68,85.3,46.7,85.3C25.5,85.3,8.3,68,8.3,46.8
		C8.3,25.5,25.5,8.3,46.7,8.3"/>
</g>
</svg>
